<?xml version="1.0" standalone="no"?>
<!DOCTYPE svg PUBLIC "-//W3C//DTD SVG 20010904//EN"
 "http://www.w3.org/TR/2001/REC-SVG-20010904/DTD/svg10.dtd">
<svg version="1.0" xmlns="http://www.w3.org/2000/svg"
 width="512.000000pt" height="512.000000pt" viewBox="0 0 512.000000 512.000000"
 preserveAspectRatio="xMidYMid meet">
<metadata>
Created by potrace 1.14, written by Peter Selinger 2001-2017
</metadata>
<g transform="translate(0.000000,512.000000) scale(0.100000,-0.100000)"
fill="#000000" stroke="none">
<path d="M2250 4510 c-186 -28 -393 -237 -476 -480 -25 -75 -29 -99 -29 -205
0 -115 2 -123 33 -188 19 -38 30 -73 26 -80 -5 -6 -40 -48 -80 -93 -103 -117
-175 -216 -308 -427 -20 -31 -36 -60 -36 -62 0 -3 -27 -53 -60 -111 -33 -58
-60 -107 -60 -109 0 -3 -15 -35 -33 -72 -18 -38 -41 -90 -51 -118 -10 -27 -20
-57 -24 -65 -40 -105 -54 -314 -28 -431 39 -173 100 -294 193 -380 50 -48 138
-111 191 -138 23 -12 42 -26 42 -32 0 -30 -22 -47 -69 -53 -179 -24 -311 -181
-311 -371 0 -104 16 -143 92 -218 l68 -68 0 -149 c0 -163 -18 -256 -66 -352
l-24 -48 28 0 c22 0 30 7 39 31 10 25 16 30 40 27 24 -3 28 -7 26 -30 l-2 -28
165 0 165 0 -7 118 c-10 179 26 294 88 279 45 -12 78 -104 78 -222 0 -38 3
-94 6 -123 l7 -52 803 0 803 0 3 87 c3 94 18 117 36 56 7 -21 24 -60 40 -88
l27 -50 198 -3 199 -2 -20 27 c-84 121 -177 353 -204 510 l-12 73 42 35 c50
44 101 143 111 217 16 128 -25 244 -121 344 -88 92 -209 154 -300 154 -21 0
-38 4 -38 9 0 6 14 25 31 43 122 129 189 327 189 551 -1 322 -122 641 -387
1017 -66 93 -269 306 -373 392 -62 50 -189 131 -235 148 -53 20 -55 25 -33 87
24 70 34 233 20 325 -20 129 -89 231 -191 282 -71 35 -138 47 -211 36z m-86
-146 c10 -26 -12 -53 -55 -64 -48 -13 -69 -8 -69 17 1 42 110 84 124 47z
m-131 -87 c7 -18 -57 -113 -90 -133 -58 -36 -73 -56 -73 -96 0 -24 8 -50 21
-68 19 -25 21 -37 15 -85 -7 -59 -29 -115 -46 -115 -20 0 -43 53 -47 113 -11
132 39 268 126 351 49 45 84 58 94 33z m-37 -182 c10 -25 -16 -46 -50 -43 -39
4 -48 34 -14 47 35 14 58 13 64 -4z m194 -85 c0 -5 -9 -10 -20 -10 -11 0 -20
5 -20 10 0 6 9 10 20 10 11 0 20 -4 20 -10z m461 -312 c38 -17 69 -36 69 -40
0 -11 -63 -97 -71 -98 -4 0 -33 16 -65 35 -32 19 -61 35 -66 35 -15 0 -8 18
25 58 17 23 34 41 36 41 2 1 34 -13 72 -31z m-984 -395 c-3 -5 -38 -66 -80
-138 -153 -265 -256 -513 -291 -704 -19 -97 -21 -287 -5 -363 14 -67 41 -127
84 -186 29 -41 60 -71 179 -175 141 -123 213 -219 154 -202 -58 16 -250 119
-306 165 -235 192 -304 515 -180 835 73 189 237 501 331 632 59 82 107 143
113 143 3 0 3 -3 1 -7z m923 -64 c92 -32 150 -102 150 -179 0 -57 -18 -84 -78
-114 -45 -22 -259 -68 -382 -81 -30 -4 -95 -13 -145 -20 -143 -22 -293 -29
-356 -16 -82 17 -145 90 -155 179 -5 44 -3 49 28 78 47 44 123 83 203 103 153
38 169 41 490 65 80 6 207 -2 245 -15z m-168 -959 c11 -98 10 -217 -1 -239
-13 -23 -24 -27 -94 -36 l-57 -7 0 160 c0 95 4 163 10 167 14 9 92 23 115 22
17 -2 21 -12 27 -67z m-174 -113 c2 -136 0 -158 -13 -164 -24 -8 -71 42 -90
95 -9 28 -15 80 -15 133 l0 88 43 4 c77 7 72 18 75 -156z m-615 -691 c9 -7 17
-26 17 -43 0 -67 14 -98 65 -149 129 -130 341 -183 680 -171 199 7 308 19 425
48 173 42 267 83 349 150 39 32 51 30 51 -11 0 -24 -9 -34 -57 -63 -124 -75
-241 -114 -461 -154 -143 -26 -591 -26 -712 1 -162 35 -255 74 -333 139 -58
48 -87 101 -87 160 0 99 19 126 63 93z m-264 -113 c-8 -10 -22 -27 -32 -38
-32 -36 -77 -139 -83 -192 -5 -38 -1 -70 15 -123 12 -40 20 -74 18 -77 -10
-10 -48 44 -68 96 -39 104 -4 227 88 311 44 41 89 58 62 23z m433 -490 c27
-24 24 -79 -6 -98 -25 -17 -45 -13 -88 19 -30 21 -38 62 -16 84 18 18 88 15
110 -5z m-400 -412 c-3 -87 -4 -91 -28 -97 -14 -4 -27 -4 -30 -1 -3 3 2 45 11
94 24 119 23 117 38 105 8 -7 11 -38 9 -101z"/>
<path d="M1550 1675 c-7 -9 -10 -25 -6 -41 10 -37 50 -30 54 10 5 40 -25 59
-48 31z"/>
</g>
</svg>
